<svg width="191" height="173" viewBox="0 0 191 173" fill="none" xmlns="http://www.w3.org/2000/svg">
<path d="M22.5552 66.1042L137.357 3.92488C140.203 2.31196 144.443 2.40249 145.837 4.10596C147.231 5.80942 145.779 9.12581 142.933 10.7387L32.6221 70.1815L56.0977 127.846C57.0494 130.184 55.28 132.721 51.6742 134.189C48.0683 135.657 45.0299 135.077 44.0782 132.739L19.3337 71.9577C18.5406 70.0096 20.31 67.4724 22.5552 66.1042Z" fill="#37474F"/>
<path d="M53.2599 138.085C46.6217 140.788 39.8201 139.49 38.068 135.186C36.316 130.882 40.2769 125.203 46.9151 122.5C53.5533 119.798 60.3549 121.096 62.107 125.399C63.859 129.703 59.898 135.383 53.2599 138.085Z" fill="#37474F"/>
<path d="M36.8174 149.321C39.5139 155.945 64.3637 165.359 64.3637 165.359C64.3637 165.359 75.5723 141.265 72.8758 134.642C70.1792 128.018 60.3045 126.133 50.088 130.293C39.8715 134.452 34.1209 142.698 36.8174 149.321Z" fill="#37474F"/>
</svg>
